{
	"patcher" : 	{
		"fileversion" : 1,
		"appversion" : 		{
			"major" : 8,
			"minor" : 6,
			"revision" : 4,
			"architecture" : "x64",
			"modernui" : 1
		}
,
		"classnamespace" : "box",
		"rect" : [ 104.0, 87.0, 1622.0, 925.0 ],
		"bglocked" : 0,
		"openinpresentation" : 0,
		"default_fontsize" : 12.0,
		"default_fontface" : 0,
		"default_fontname" : "Arial",
		"gridonopen" : 1,
		"gridsize" : [ 15.0, 15.0 ],
		"gridsnaponopen" : 1,
		"objectsnaponopen" : 1,
		"statusbarvisible" : 2,
		"toolbarvisible" : 1,
		"lefttoolbarpinned" : 0,
		"toptoolbarpinned" : 0,
		"righttoolbarpinned" : 0,
		"bottomtoolbarpinned" : 0,
		"toolbars_unpinned_last_save" : 0,
		"tallnewobj" : 0,
		"boxanimatetime" : 200,
		"enablehscroll" : 1,
		"enablevscroll" : 1,
		"devicewidth" : 0.0,
		"description" : "",
		"digest" : "",
		"tags" : "",
		"style" : "",
		"subpatcher_template" : "",
		"assistshowspatchername" : 0,
		"boxes" : [ 			{
				"box" : 				{
					"id" : "obj-25",
					"maxclass" : "newobj",
					"numinlets" : 0,
					"numoutlets" : 1,
					"outlettype" : [ "" ],
					"patching_rect" : [ 1105.936169147491455, 264.0, 65.0, 22.0 ],
					"text" : "r galaxy.all"
				}

			}
, 			{
				"box" : 				{
					"id" : "obj-22",
					"maxclass" : "newobj",
					"numinlets" : 2,
					"numoutlets" : 2,
					"outlettype" : [ "", "" ],
					"patching_rect" : [ 522.936169147491455, 392.000001378891056, 60.0, 22.0 ],
					"text" : "route rate"
				}

			}
, 			{
				"box" : 				{
					"id" : "obj-18",
					"maxclass" : "newobj",
					"numinlets" : 0,
					"numoutlets" : 1,
					"outlettype" : [ "" ],
					"patching_rect" : [ 586.0, 693.0, 154.0, 22.0 ],
					"text" : "r randomiseVideoAtFileEnd"
				}

			}
, 			{
				"box" : 				{
					"id" : "obj-17",
					"maxclass" : "newobj",
					"numinlets" : 2,
					"numoutlets" : 1,
					"outlettype" : [ "" ],
					"patching_rect" : [ 586.0, 720.0, 52.0, 22.0 ],
					"text" : "gate 1 1"
				}

			}
, 			{
				"box" : 				{
					"id" : "obj-58",
					"maxclass" : "newobj",
					"numinlets" : 2,
					"numoutlets" : 1,
					"outlettype" : [ "" ],
					"patcher" : 					{
						"fileversion" : 1,
						"appversion" : 						{
							"major" : 8,
							"minor" : 6,
							"revision" : 4,
							"architecture" : "x64",
							"modernui" : 1
						}
,
						"classnamespace" : "box",
						"rect" : [ 59.0, 106.0, 640.0, 480.0 ],
						"bglocked" : 0,
						"openinpresentation" : 0,
						"default_fontsize" : 12.0,
						"default_fontface" : 0,
						"default_fontname" : "Arial",
						"gridonopen" : 1,
						"gridsize" : [ 15.0, 15.0 ],
						"gridsnaponopen" : 1,
						"objectsnaponopen" : 1,
						"statusbarvisible" : 2,
						"toolbarvisible" : 1,
						"lefttoolbarpinned" : 0,
						"toptoolbarpinned" : 0,
						"righttoolbarpinned" : 0,
						"bottomtoolbarpinned" : 0,
						"toolbars_unpinned_last_save" : 0,
						"tallnewobj" : 0,
						"boxanimatetime" : 200,
						"enablehscroll" : 1,
						"enablevscroll" : 1,
						"devicewidth" : 0.0,
						"description" : "",
						"digest" : "",
						"tags" : "",
						"style" : "",
						"subpatcher_template" : "",
						"assistshowspatchername" : 0,
						"boxes" : [ 							{
								"box" : 								{
									"id" : "obj-5",
									"maxclass" : "newobj",
									"numinlets" : 2,
									"numoutlets" : 2,
									"outlettype" : [ "bang", "" ],
									"patching_rect" : [ 55.5, 226.0, 34.0, 22.0 ],
									"text" : "sel 1"
								}

							}
, 							{
								"box" : 								{
									"id" : "obj-54",
									"maxclass" : "newobj",
									"numinlets" : 2,
									"numoutlets" : 1,
									"outlettype" : [ "" ],
									"patching_rect" : [ 55.0, 358.0, 46.0, 22.0 ],
									"text" : "pack i i"
								}

							}
, 							{
								"box" : 								{
									"id" : "obj-51",
									"maxclass" : "newobj",
									"numinlets" : 2,
									"numoutlets" : 1,
									"outlettype" : [ "" ],
									"patching_rect" : [ 82.0, 329.0, 49.0, 22.0 ],
									"text" : "random"
								}

							}
, 							{
								"box" : 								{
									"id" : "obj-50",
									"maxclass" : "newobj",
									"numinlets" : 1,
									"numoutlets" : 2,
									"outlettype" : [ "int", "bang" ],
									"patching_rect" : [ 55.25, 292.0, 29.5, 22.0 ],
									"text" : "t i b"
								}

							}
, 							{
								"box" : 								{
									"id" : "obj-49",
									"maxclass" : "newobj",
									"numinlets" : 2,
									"numoutlets" : 1,
									"outlettype" : [ "int" ],
									"patching_rect" : [ 55.5, 201.0, 49.0, 22.0 ],
									"text" : ">= 0.96"
								}

							}
, 							{
								"box" : 								{
									"id" : "obj-48",
									"maxclass" : "newobj",
									"numinlets" : 2,
									"numoutlets" : 2,
									"outlettype" : [ "", "" ],
									"patching_rect" : [ 55.25, 259.0, 50.0, 22.0 ],
									"text" : "zl.reg"
								}

							}
, 							{
								"box" : 								{
									"id" : "obj-47",
									"maxclass" : "newobj",
									"numinlets" : 2,
									"numoutlets" : 2,
									"outlettype" : [ "", "" ],
									"patching_rect" : [ 50.0, 129.5, 37.0, 22.0 ],
									"text" : "zl.rev"
								}

							}
, 							{
								"box" : 								{
									"id" : "obj-40",
									"maxclass" : "newobj",
									"numinlets" : 1,
									"numoutlets" : 2,
									"outlettype" : [ "float", "int" ],
									"patching_rect" : [ 50.0, 168.0, 60.0, 22.0 ],
									"text" : "unpack f i"
								}

							}
, 							{
								"box" : 								{
									"id" : "obj-35",
									"maxclass" : "newobj",
									"numinlets" : 1,
									"numoutlets" : 1,
									"outlettype" : [ "list" ],
									"patching_rect" : [ 50.0, 100.0, 66.0, 22.0 ],
									"text" : "listfunnel 1"
								}

							}
, 							{
								"box" : 								{
									"comment" : "",
									"id" : "obj-55",
									"index" : 1,
									"maxclass" : "inlet",
									"numinlets" : 0,
									"numoutlets" : 1,
									"outlettype" : [ "" ],
									"patching_rect" : [ 50.0, 40.0, 30.0, 30.0 ]
								}

							}
, 							{
								"box" : 								{
									"comment" : "",
									"id" : "obj-56",
									"index" : 2,
									"maxclass" : "inlet",
									"numinlets" : 0,
									"numoutlets" : 1,
									"outlettype" : [ "" ],
									"patching_rect" : [ 105.75, 40.0, 30.0, 30.0 ]
								}

							}
, 							{
								"box" : 								{
									"comment" : "",
									"id" : "obj-57",
									"index" : 1,
									"maxclass" : "outlet",
									"numinlets" : 1,
									"numoutlets" : 0,
									"patching_rect" : [ 55.0, 440.0, 30.0, 30.0 ]
								}

							}
 ],
						"lines" : [ 							{
								"patchline" : 								{
									"destination" : [ "obj-47", 0 ],
									"source" : [ "obj-35", 0 ]
								}

							}
, 							{
								"patchline" : 								{
									"destination" : [ "obj-48", 1 ],
									"source" : [ "obj-40", 1 ]
								}

							}
, 							{
								"patchline" : 								{
									"destination" : [ "obj-49", 0 ],
									"source" : [ "obj-40", 0 ]
								}

							}
, 							{
								"patchline" : 								{
									"destination" : [ "obj-40", 0 ],
									"source" : [ "obj-47", 0 ]
								}

							}
, 							{
								"patchline" : 								{
									"destination" : [ "obj-50", 0 ],
									"source" : [ "obj-48", 0 ]
								}

							}
, 							{
								"patchline" : 								{
									"destination" : [ "obj-5", 0 ],
									"source" : [ "obj-49", 0 ]
								}

							}
, 							{
								"patchline" : 								{
									"destination" : [ "obj-48", 0 ],
									"source" : [ "obj-5", 0 ]
								}

							}
, 							{
								"patchline" : 								{
									"destination" : [ "obj-51", 0 ],
									"source" : [ "obj-50", 1 ]
								}

							}
, 							{
								"patchline" : 								{
									"destination" : [ "obj-54", 0 ],
									"source" : [ "obj-50", 0 ]
								}

							}
, 							{
								"patchline" : 								{
									"destination" : [ "obj-54", 1 ],
									"source" : [ "obj-51", 0 ]
								}

							}
, 							{
								"patchline" : 								{
									"destination" : [ "obj-57", 0 ],
									"source" : [ "obj-54", 0 ]
								}

							}
, 							{
								"patchline" : 								{
									"destination" : [ "obj-35", 0 ],
									"source" : [ "obj-55", 0 ]
								}

							}
, 							{
								"patchline" : 								{
									"destination" : [ "obj-51", 1 ],
									"source" : [ "obj-56", 0 ]
								}

							}
 ]
					}
,
					"patching_rect" : [ 634.0, 663.0, 106.0, 22.0 ],
					"saved_object_attributes" : 					{
						"description" : "",
						"digest" : "",
						"globalpatchername" : "",
						"tags" : ""
					}
,
					"text" : "p new_file_at_end"
				}

			}
, 			{
				"box" : 				{
					"id" : "obj-19",
					"maxclass" : "comment",
					"numinlets" : 1,
					"numoutlets" : 0,
					"patching_rect" : [ 260.436169147491455, 108.0, 150.0, 20.0 ],
					"text" : "target, video"
				}

			}
, 			{
				"box" : 				{
					"id" : "obj-60",
					"maxclass" : "message",
					"numinlets" : 2,
					"numoutlets" : 1,
					"outlettype" : [ "" ],
					"patching_rect" : [ 74.936169147491455, 154.0, 101.0, 22.0 ],
					"presentation" : 1,
					"presentation_rect" : [ 37.5, 688.71495327102798, 109.0, 22.0 ],
					"text" : "target $1, play $2"
				}

			}
, 			{
				"box" : 				{
					"id" : "obj-10",
					"maxclass" : "newobj",
					"numinlets" : 3,
					"numoutlets" : 3,
					"outlettype" : [ "", "", "" ],
					"patching_rect" : [ 74.936169147491455, 108.0, 184.0, 22.0 ],
					"text" : "route playback_msg flickertozero"
				}

			}
, 			{
				"box" : 				{
					"id" : "obj-15",
					"maxclass" : "newobj",
					"numinlets" : 2,
					"numoutlets" : 2,
					"outlettype" : [ "", "" ],
					"patching_rect" : [ 228.5, 317.0, 81.0, 22.0 ],
					"text" : "route position"
				}

			}
, 			{
				"box" : 				{
					"id" : "obj-11",
					"maxclass" : "newobj",
					"numinlets" : 0,
					"numoutlets" : 1,
					"outlettype" : [ "" ],
					"patching_rect" : [ 74.936169147491455, 13.0, 85.0, 22.0 ],
					"text" : "r polymovie.all"
				}

			}
, 			{
				"box" : 				{
					"id" : "obj-8",
					"maxclass" : "comment",
					"numinlets" : 1,
					"numoutlets" : 0,
					"patching_rect" : [ 1211.5, 331.0, 150.0, 20.0 ],
					"text" : "galaxy.galaxy.v2"
				}

			}
, 			{
				"box" : 				{
					"id" : "obj-6",
					"maxclass" : "newobj",
					"numinlets" : 0,
					"numoutlets" : 2,
					"outlettype" : [ "", "" ],
					"patching_rect" : [ 1102.5, 301.0, 166.0, 22.0 ],
					"text" : "seb.r.poly galaxy galaxy #0"
				}

			}
, 			{
				"box" : 				{
					"id" : "obj-24",
					"maxclass" : "comment",
					"numinlets" : 1,
					"numoutlets" : 0,
					"patching_rect" : [ 234.0, 70.0, 150.0, 20.0 ],
					"text" : "polymovie.polymovie.v2"
				}

			}
, 			{
				"box" : 				{
					"id" : "obj-14",
					"maxclass" : "newobj",
					"numinlets" : 1,
					"numoutlets" : 0,
					"patching_rect" : [ 1124.5, 584.0, 106.0, 22.0 ],
					"text" : "s #0.instance"
				}

			}
, 			{
				"box" : 				{
					"id" : "obj-5",
					"maxclass" : "newobj",
					"numinlets" : 0,
					"numoutlets" : 2,
					"outlettype" : [ "", "" ],
					"patching_rect" : [ 106.0, 46.0, 205.0, 22.0 ],
					"text" : "seb.r.poly polymovie polymovie #0"
				}

			}
, 			{
				"box" : 				{
					"id" : "obj-13",
					"maxclass" : "message",
					"numinlets" : 2,
					"numoutlets" : 1,
					"outlettype" : [ "" ],
					"patching_rect" : [ 1068.0, 584.0, 41.0, 22.0 ],
					"text" : "set $1"
				}

			}
, 			{
				"box" : 				{
					"id" : "obj-4",
					"maxclass" : "newobj",
					"numinlets" : 1,
					"numoutlets" : 1,
					"outlettype" : [ "bang" ],
					"patching_rect" : [ 1068.0, 513.0, 58.0, 22.0 ],
					"text" : "loadbang"
				}

			}
, 			{
				"box" : 				{
					"id" : "obj-2",
					"maxclass" : "newobj",
					"numinlets" : 1,
					"numoutlets" : 3,
					"outlettype" : [ "int", "int", "int" ],
					"patching_rect" : [ 1068.0, 547.0, 56.0, 22.0 ],
					"text" : "thispoly~"
				}

			}
, 			{
				"box" : 				{
					"id" : "obj-220",
					"maxclass" : "newobj",
					"numinlets" : 1,
					"numoutlets" : 1,
					"outlettype" : [ "" ],
					"patching_rect" : [ 1011.653564576326517, 322.593784717199014, 29.0, 22.0 ],
					"text" : "in 2"
				}

			}
, 			{
				"box" : 				{
					"id" : "obj-208",
					"maxclass" : "button",
					"numinlets" : 1,
					"numoutlets" : 1,
					"outlettype" : [ "bang" ],
					"parameter_enable" : 0,
					"patching_rect" : [ 1011.653564576326517, 404.5, 24.0, 24.0 ]
				}

			}
, 			{
				"box" : 				{
					"id" : "obj-206",
					"linecount" : 2,
					"maxclass" : "newobj",
					"numinlets" : 11,
					"numoutlets" : 11,
					"outlettype" : [ "", "", "", "", "", "", "", "", "", "", "" ],
					"patching_rect" : [ 1011.653564576326517, 367.634150564670563, 543.0, 35.0 ],
					"text" : "route new max_radius num_of_images scale blend_mode brightness position rotate jit.gl.videoplane clear_screens"
				}

			}
, 			{
				"box" : 				{
					"id" : "obj-195",
					"maxclass" : "newobj",
					"numinlets" : 1,
					"numoutlets" : 1,
					"outlettype" : [ "" ],
					"patching_rect" : [ 666.936169147491455, 420.000001378891056, 108.0, 22.0 ],
					"text" : "prepend instance"
				}

			}
, 			{
				"box" : 				{
					"id" : "obj-193",
					"maxclass" : "newobj",
					"numinlets" : 0,
					"numoutlets" : 1,
					"outlettype" : [ "" ],
					"patching_rect" : [ 238.524858615294534, 193.0, 100.0, 22.0 ],
					"text" : "r #0.polymovie"
				}

			}
, 			{
				"box" : 				{
					"id" : "obj-153",
					"maxclass" : "newobj",
					"numinlets" : 1,
					"numoutlets" : 0,
					"patching_rect" : [ 539.936169147491455, 493.0, 85.0, 22.0 ],
					"text" : "s #0.fastUzi"
				}

			}
, 			{
				"box" : 				{
					"id" : "obj-148",
					"maxclass" : "newobj",
					"numinlets" : 2,
					"numoutlets" : 1,
					"outlettype" : [ "" ],
					"patching_rect" : [ 64.702472588912087, 455.0, 66.0, 22.0 ],
					"text" : "pipe 1000"
				}

			}
, 			{
				"box" : 				{
					"id" : "obj-127",
					"maxclass" : "message",
					"numinlets" : 2,
					"numoutlets" : 1,
					"outlettype" : [ "" ],
					"patching_rect" : [ 70.175306737422943, 426.0, 29.5, 22.0 ],
					"text" : "1"
				}

			}
, 			{
				"box" : 				{
					"id" : "obj-180",
					"maxclass" : "newobj",
					"numinlets" : 3,
					"numoutlets" : 2,
					"outlettype" : [ "int", "" ],
					"patcher" : 					{
						"fileversion" : 1,
						"appversion" : 						{
							"major" : 8,
							"minor" : 6,
							"revision" : 4,
							"architecture" : "x64",
							"modernui" : 1
						}
,
						"classnamespace" : "box",
						"rect" : [ 726.0, 113.0, 640.0, 480.0 ],
						"bglocked" : 0,
						"openinpresentation" : 0,
						"default_fontsize" : 12.0,
						"default_fontface" : 0,
						"default_fontname" : "Arial",
						"gridonopen" : 1,
						"gridsize" : [ 15.0, 15.0 ],
						"gridsnaponopen" : 1,
						"objectsnaponopen" : 1,
						"statusbarvisible" : 2,
						"toolbarvisible" : 1,
						"lefttoolbarpinned" : 0,
						"toptoolbarpinned" : 0,
						"righttoolbarpinned" : 0,
						"bottomtoolbarpinned" : 0,
						"toolbars_unpinned_last_save" : 0,
						"tallnewobj" : 0,
						"boxanimatetime" : 200,
						"enablehscroll" : 1,
						"enablevscroll" : 1,
						"devicewidth" : 0.0,
						"description" : "",
						"digest" : "",
						"tags" : "",
						"style" : "",
						"subpatcher_template" : "",
						"assistshowspatchername" : 0,
						"boxes" : [ 							{
								"box" : 								{
									"comment" : "",
									"id" : "obj-4",
									"index" : 2,
									"maxclass" : "outlet",
									"numinlets" : 1,
									"numoutlets" : 0,
									"patching_rect" : [ 119.0, 290.0, 30.0, 30.0 ]
								}

							}
, 							{
								"box" : 								{
									"id" : "obj-3",
									"maxclass" : "newobj",
									"numinlets" : 1,
									"numoutlets" : 1,
									"outlettype" : [ "" ],
									"patching_rect" : [ 291.0, 108.0, 77.0, 22.0 ],
									"text" : "loadmess 45"
								}

							}
, 							{
								"box" : 								{
									"comment" : "",
									"id" : "obj-2",
									"index" : 3,
									"maxclass" : "inlet",
									"numinlets" : 0,
									"numoutlets" : 1,
									"outlettype" : [ "" ],
									"patching_rect" : [ 208.0, 52.0, 30.0, 30.0 ]
								}

							}
, 							{
								"box" : 								{
									"id" : "obj-1",
									"maxclass" : "newobj",
									"numinlets" : 2,
									"numoutlets" : 1,
									"outlettype" : [ "int" ],
									"patching_rect" : [ 118.0, 214.0, 29.5, 22.0 ],
									"text" : "+ 1"
								}

							}
, 							{
								"box" : 								{
									"id" : "obj-100",
									"maxclass" : "message",
									"numinlets" : 2,
									"numoutlets" : 1,
									"outlettype" : [ "" ],
									"patching_rect" : [ 118.0, 245.820311999999831, 92.0, 22.0 ],
									"text" : "target $1, stop"
								}

							}
, 							{
								"box" : 								{
									"id" : "obj-176",
									"maxclass" : "message",
									"numinlets" : 2,
									"numoutlets" : 1,
									"outlettype" : [ "" ],
									"patching_rect" : [ 118.0, 138.0, 50.0, 22.0 ],
									"text" : "1"
								}

							}
, 							{
								"box" : 								{
									"id" : "obj-174",
									"maxclass" : "message",
									"numinlets" : 2,
									"numoutlets" : 1,
									"outlettype" : [ "" ],
									"patching_rect" : [ 197.5, 134.0, 29.5, 22.0 ],
									"text" : "45"
								}

							}
, 							{
								"box" : 								{
									"id" : "obj-170",
									"maxclass" : "newobj",
									"numinlets" : 2,
									"numoutlets" : 3,
									"outlettype" : [ "bang", "bang", "int" ],
									"patching_rect" : [ 135.652172794965736, 171.0, 76.0, 22.0 ],
									"text" : "seb.slowuzi"
								}

							}
, 							{
								"box" : 								{
									"id" : "obj-159",
									"maxclass" : "newobj",
									"numinlets" : 2,
									"numoutlets" : 1,
									"outlettype" : [ "int" ],
									"patching_rect" : [ 86.597827205034264, 100.0, 29.5, 22.0 ],
									"text" : "+ 1"
								}

							}
, 							{
								"box" : 								{
									"id" : "obj-148",
									"maxclass" : "newobj",
									"numinlets" : 2,
									"numoutlets" : 1,
									"outlettype" : [ "int" ],
									"patching_rect" : [ 49.999988205034242, 146.0, 35.0, 22.0 ],
									"text" : "!- 10"
								}

							}
, 							{
								"box" : 								{
									"comment" : "",
									"id" : "obj-177",
									"index" : 2,
									"maxclass" : "inlet",
									"numinlets" : 0,
									"numoutlets" : 1,
									"outlettype" : [ "" ],
									"patching_rect" : [ 86.597827205034264, 40.0, 30.0, 30.0 ]
								}

							}
, 							{
								"box" : 								{
									"comment" : "",
									"id" : "obj-178",
									"index" : 1,
									"maxclass" : "inlet",
									"numinlets" : 0,
									"numoutlets" : 1,
									"outlettype" : [ "bang" ],
									"patching_rect" : [ 28.597827205034264, 40.0, 30.0, 30.0 ]
								}

							}
, 							{
								"box" : 								{
									"comment" : "",
									"id" : "obj-179",
									"index" : 1,
									"maxclass" : "outlet",
									"numinlets" : 1,
									"numoutlets" : 0,
									"patching_rect" : [ 49.999988205034242, 245.820311999999831, 30.0, 30.0 ]
								}

							}
 ],
						"lines" : [ 							{
								"patchline" : 								{
									"destination" : [ "obj-100", 0 ],
									"source" : [ "obj-1", 0 ]
								}

							}
, 							{
								"patchline" : 								{
									"destination" : [ "obj-4", 0 ],
									"source" : [ "obj-100", 0 ]
								}

							}
, 							{
								"patchline" : 								{
									"destination" : [ "obj-1", 0 ],
									"order" : 0,
									"source" : [ "obj-148", 0 ]
								}

							}
, 							{
								"patchline" : 								{
									"destination" : [ "obj-179", 0 ],
									"order" : 1,
									"source" : [ "obj-148", 0 ]
								}

							}
, 							{
								"patchline" : 								{
									"destination" : [ "obj-148", 1 ],
									"order" : 1,
									"source" : [ "obj-159", 0 ]
								}

							}
, 							{
								"patchline" : 								{
									"destination" : [ "obj-176", 1 ],
									"order" : 0,
									"source" : [ "obj-159", 0 ]
								}

							}
, 							{
								"patchline" : 								{
									"destination" : [ "obj-148", 0 ],
									"source" : [ "obj-170", 2 ]
								}

							}
, 							{
								"patchline" : 								{
									"destination" : [ "obj-170", 1 ],
									"source" : [ "obj-174", 0 ]
								}

							}
, 							{
								"patchline" : 								{
									"destination" : [ "obj-170", 0 ],
									"source" : [ "obj-176", 0 ]
								}

							}
, 							{
								"patchline" : 								{
									"destination" : [ "obj-159", 0 ],
									"source" : [ "obj-177", 0 ]
								}

							}
, 							{
								"patchline" : 								{
									"destination" : [ "obj-174", 0 ],
									"order" : 0,
									"source" : [ "obj-178", 0 ]
								}

							}
, 							{
								"patchline" : 								{
									"destination" : [ "obj-176", 0 ],
									"order" : 1,
									"source" : [ "obj-178", 0 ]
								}

							}
, 							{
								"patchline" : 								{
									"destination" : [ "obj-174", 1 ],
									"source" : [ "obj-2", 0 ]
								}

							}
, 							{
								"patchline" : 								{
									"destination" : [ "obj-174", 1 ],
									"source" : [ "obj-3", 0 ]
								}

							}
 ]
					}
,
					"patching_rect" : [ 462.436169147491455, 532.0, 89.0, 22.0 ],
					"presentation" : 1,
					"presentation_rect" : [ 266.5, 783.0, 89.0, 22.0 ],
					"saved_object_attributes" : 					{
						"description" : "",
						"digest" : "",
						"globalpatchername" : "",
						"tags" : ""
					}
,
					"text" : "p flickertozero"
				}

			}
, 			{
				"box" : 				{
					"id" : "obj-168",
					"maxclass" : "number",
					"numinlets" : 1,
					"numoutlets" : 2,
					"outlettype" : [ "", "bang" ],
					"parameter_enable" : 0,
					"patching_rect" : [ 564.936169147491455, 446.0, 50.0, 22.0 ],
					"presentation" : 1,
					"presentation_rect" : [ 295.5, 757.0, 50.0, 22.0 ]
				}

			}
, 			{
				"box" : 				{
					"id" : "obj-155",
					"maxclass" : "button",
					"numinlets" : 1,
					"numoutlets" : 1,
					"outlettype" : [ "bang" ],
					"parameter_enable" : 0,
					"patching_rect" : [ 472.702472588912087, 436.0, 24.0, 24.0 ],
					"presentation" : 1,
					"presentation_rect" : [ 266.5, 757.0, 24.0, 24.0 ]
				}

			}
, 			{
				"box" : 				{
					"id" : "obj-123",
					"maxclass" : "newobj",
					"numinlets" : 2,
					"numoutlets" : 1,
					"outlettype" : [ "int" ],
					"patching_rect" : [ 359.702472588912087, 513.0, 29.5, 22.0 ],
					"text" : "+ 1"
				}

			}
, 			{
				"box" : 				{
					"id" : "obj-122",
					"maxclass" : "newobj",
					"numinlets" : 2,
					"numoutlets" : 2,
					"outlettype" : [ "", "" ],
					"patching_rect" : [ 184.936169147491455, 425.0, 55.0, 22.0 ],
					"text" : "gate 2 1"
				}

			}
, 			{
				"box" : 				{
					"id" : "obj-118",
					"maxclass" : "newobj",
					"numinlets" : 2,
					"numoutlets" : 1,
					"outlettype" : [ "int" ],
					"patching_rect" : [ 309.024858615294534, 455.0, 29.5, 22.0 ],
					"text" : "< 1"
				}

			}
, 			{
				"box" : 				{
					"id" : "obj-120",
					"maxclass" : "message",
					"numinlets" : 2,
					"numoutlets" : 1,
					"outlettype" : [ "" ],
					"patching_rect" : [ 220.936169147491455, 472.0, 82.0, 22.0 ],
					"text" : "texture black"
				}

			}
, 			{
				"box" : 				{
					"id" : "obj-87",
					"maxclass" : "comment",
					"numinlets" : 1,
					"numoutlets" : 0,
					"patching_rect" : [ 367.436169147491455, 350.0, 150.0, 20.0 ],
					"presentation" : 1,
					"presentation_rect" : [ 105.5, 753.0, 150.0, 20.0 ],
					"text" : "reduce to no. of images"
				}

			}
, 			{
				"box" : 				{
					"id" : "obj-83",
					"maxclass" : "number",
					"numinlets" : 1,
					"numoutlets" : 2,
					"outlettype" : [ "", "bang" ],
					"parameter_enable" : 0,
					"patching_rect" : [ 310.436169147491455, 350.0, 50.0, 22.0 ],
					"presentation" : 1,
					"presentation_rect" : [ 50.233696558579368, 752.0, 50.0, 22.0 ]
				}

			}
, 			{
				"box" : 				{
					"id" : "obj-77",
					"maxclass" : "newobj",
					"numinlets" : 1,
					"numoutlets" : 0,
					"patching_rect" : [ 363.436169147491455, 392.000001378891056, 127.0, 22.0 ],
					"text" : "s clearExcessScreens"
				}

			}
, 			{
				"box" : 				{
					"id" : "obj-163",
					"maxclass" : "newobj",
					"numinlets" : 0,
					"numoutlets" : 1,
					"outlettype" : [ "" ],
					"patching_rect" : [ 555.702472588912087, 193.5, 101.0, 22.0 ],
					"text" : "r getmoviecount"
				}

			}
, 			{
				"box" : 				{
					"fontsize" : 24.811008679011735,
					"id" : "obj-158",
					"maxclass" : "comment",
					"numinlets" : 1,
					"numoutlets" : 0,
					"patching_rect" : [ 755.936169147491455, 30.0, 171.0, 34.0 ],
					"presentation" : 1,
					"presentation_rect" : [ 543.472834148510856, 611.0, 171.0, 34.0 ],
					"text" : "jit.gl.polymovie"
				}

			}
, 			{
				"box" : 				{
					"id" : "obj-69",
					"maxclass" : "newobj",
					"numinlets" : 1,
					"numoutlets" : 0,
					"patching_rect" : [ 666.936169147491455, 461.0, 81.0, 22.0 ],
					"text" : "s videocount"
				}

			}
, 			{
				"box" : 				{
					"id" : "obj-66",
					"maxclass" : "newobj",
					"numinlets" : 2,
					"numoutlets" : 2,
					"outlettype" : [ "", "" ],
					"patching_rect" : [ 655.936169147491455, 289.0, 74.0, 22.0 ],
					"text" : "route count"
				}

			}
, 			{
				"box" : 				{
					"id" : "obj-61",
					"maxclass" : "newobj",
					"numinlets" : 1,
					"numoutlets" : 1,
					"outlettype" : [ "" ],
					"patching_rect" : [ 111.675306737422943, 367.0, 100.0, 22.0 ],
					"text" : "prepend texture"
				}

			}
, 			{
				"box" : 				{
					"id" : "obj-52",
					"maxclass" : "newobj",
					"numinlets" : 1,
					"numoutlets" : 0,
					"patching_rect" : [ 199.936169147491455, 584.0, 129.0, 22.0 ],
					"text" : "s #0.texturesNames"
				}

			}
, 			{
				"box" : 				{
					"id" : "obj-28",
					"maxclass" : "newobj",
					"numinlets" : 10,
					"numoutlets" : 0,
					"patcher" : 					{
						"fileversion" : 1,
						"appversion" : 						{
							"major" : 8,
							"minor" : 6,
							"revision" : 4,
							"architecture" : "x64",
							"modernui" : 1
						}
,
						"classnamespace" : "box",
						"rect" : [ 264.0, 206.0, 927.0, 608.0 ],
						"bglocked" : 0,
						"openinpresentation" : 0,
						"default_fontsize" : 12.0,
						"default_fontface" : 0,
						"default_fontname" : "Arial",
						"gridonopen" : 2,
						"gridsize" : [ 15.0, 15.0 ],
						"gridsnaponopen" : 1,
						"objectsnaponopen" : 1,
						"statusbarvisible" : 2,
						"toolbarvisible" : 1,
						"lefttoolbarpinned" : 0,
						"toptoolbarpinned" : 0,
						"righttoolbarpinned" : 0,
						"bottomtoolbarpinned" : 0,
						"toolbars_unpinned_last_save" : 0,
						"tallnewobj" : 0,
						"boxanimatetime" : 200,
						"enablehscroll" : 1,
						"enablevscroll" : 1,
						"devicewidth" : 0.0,
						"description" : "",
						"digest" : "",
						"tags" : "",
						"style" : "",
						"subpatcher_template" : "Template_Grid",
						"assistshowspatchername" : 0,
						"boxes" : [ 							{
								"box" : 								{
									"id" : "obj-34",
									"maxclass" : "message",
									"numinlets" : 2,
									"numoutlets" : 1,
									"outlettype" : [ "" ],
									"patching_rect" : [ 452.0, 553.0, 41.0, 22.0 ],
									"text" : "set $1"
								}

							}
, 							{
								"box" : 								{
									"id" : "obj-31",
									"maxclass" : "newobj",
									"numinlets" : 1,
									"numoutlets" : 1,
									"outlettype" : [ "" ],
									"patching_rect" : [ 446.0, 586.0, 53.0, 22.0 ],
									"text" : "prepend"
								}

							}
, 							{
								"box" : 								{
									"id" : "obj-29",
									"linecount" : 3,
									"maxclass" : "newobj",
									"numinlets" : 0,
									"numoutlets" : 1,
									"outlettype" : [ "" ],
									"patching_rect" : [ 458.0, 527.0, 77.0, 22.0 ],
									"text" : "r #0.instance"
								}

							}
, 							{
								"box" : 								{
									"id" : "obj-3",
									"maxclass" : "newobj",
									"numinlets" : 1,
									"numoutlets" : 0,
									"patching_rect" : [ 446.0, 619.0, 131.0, 22.0 ],
									"text" : "s from_jit.gl.videoplane"
								}

							}
, 							{
								"box" : 								{
									"comment" : "",
									"id" : "obj-32",
									"index" : 9,
									"maxclass" : "inlet",
									"numinlets" : 0,
									"numoutlets" : 1,
									"outlettype" : [ "" ],
									"patching_rect" : [ 1013.387138605117798, 256.217385888099614, 30.0, 30.0 ]
								}

							}
, 							{
								"box" : 								{
									"id" : "obj-30",
									"maxclass" : "comment",
									"numinlets" : 1,
									"numoutlets" : 0,
									"patching_rect" : [ 1088.387138605117798, 76.47826075553894, 150.0, 20.0 ],
									"text" : "clear excess screens"
								}

							}
, 							{
								"box" : 								{
									"comment" : "",
									"id" : "obj-22",
									"index" : 10,
									"maxclass" : "inlet",
									"numinlets" : 0,
									"numoutlets" : 1,
									"outlettype" : [ "int" ],
									"patching_rect" : [ 1056.387138605117798, 66.47826075553894, 30.0, 30.0 ]
								}

							}
, 							{
								"box" : 								{
									"comment" : "",
									"id" : "obj-28",
									"index" : 8,
									"maxclass" : "inlet",
									"numinlets" : 0,
									"numoutlets" : 1,
									"outlettype" : [ "" ],
									"patching_rect" : [ 898.0, 256.217385888099614, 30.0, 30.0 ]
								}

							}
, 							{
								"box" : 								{
									"comment" : "",
									"id" : "obj-27",
									"index" : 7,
									"maxclass" : "inlet",
									"numinlets" : 0,
									"numoutlets" : 1,
									"outlettype" : [ "" ],
									"patching_rect" : [ 782.0, 256.217385888099614, 30.0, 30.0 ]
								}

							}
, 							{
								"box" : 								{
									"id" : "obj-25",
									"maxclass" : "message",
									"numinlets" : 2,
									"numoutlets" : 1,
									"outlettype" : [ "" ],
									"patching_rect" : [ 904.0, 306.0, 106.0, 22.0 ],
									"text" : "rotate $1 $2 $3 $4"
								}

							}
, 							{
								"box" : 								{
									"id" : "obj-24",
									"maxclass" : "message",
									"numinlets" : 2,
									"numoutlets" : 1,
									"outlettype" : [ "" ],
									"patching_rect" : [ 782.0, 306.0, 100.0, 22.0 ],
									"text" : "position $1 $2 $3"
								}

							}
, 							{
								"box" : 								{
									"id" : "obj-23",
									"maxclass" : "comment",
									"numinlets" : 1,
									"numoutlets" : 0,
									"patching_rect" : [ 283.0, 38.0, 94.0, 20.0 ],
									"text" : "num_of_images"
								}

							}
, 							{
								"box" : 								{
									"comment" : "",
									"id" : "obj-21",
									"index" : 3,
									"maxclass" : "inlet",
									"numinlets" : 0,
									"numoutlets" : 1,
									"outlettype" : [ "" ],
									"patching_rect" : [ 249.0, 27.0, 30.0, 30.0 ]
								}

							}
, 							{
								"box" : 								{
									"id" : "obj-53",
									"maxclass" : "newobj",
									"numinlets" : 1,
									"numoutlets" : 1,
									"outlettype" : [ "jit_matrix" ],
									"patcher" : 									{
										"fileversion" : 1,
										"appversion" : 										{
											"major" : 8,
											"minor" : 6,
											"revision" : 4,
											"architecture" : "x64",
											"modernui" : 1
										}
,
										"classnamespace" : "box",
										"rect" : [ 59.0, 106.0, 908.0, 517.0 ],
										"bglocked" : 0,
										"openinpresentation" : 0,
										"default_fontsize" : 12.0,
										"default_fontface" : 0,
										"default_fontname" : "Arial",
										"gridonopen" : 1,
										"gridsize" : [ 15.0, 15.0 ],
										"gridsnaponopen" : 1,
										"objectsnaponopen" : 1,
										"statusbarvisible" : 2,
										"toolbarvisible" : 1,
										"lefttoolbarpinned" : 0,
										"toptoolbarpinned" : 0,
										"righttoolbarpinned" : 0,
										"bottomtoolbarpinned" : 0,
										"toolbars_unpinned_last_save" : 0,
										"tallnewobj" : 0,
										"boxanimatetime" : 200,
										"enablehscroll" : 1,
										"enablevscroll" : 1,
										"devicewidth" : 0.0,
										"description" : "",
										"digest" : "",
										"tags" : "",
										"style" : "",
										"subpatcher_template" : "Template_Grid",
										"assistshowspatchername" : 0,
										"boxes" : [ 											{
												"box" : 												{
													"id" : "obj-18",
													"maxclass" : "newobj",
													"numinlets" : 1,
													"numoutlets" : 2,
													"outlettype" : [ "", "" ],
													"patching_rect" : [ 765.0, 139.0, 67.0, 22.0 ],
													"save" : [ "#N", "thispatcher", ";", "#Q", "end", ";" ],
													"text" : "thispatcher"
												}

											}
, 											{
												"box" : 												{
													"id" : "obj-19",
													"maxclass" : "message",
													"numinlets" : 2,
													"numoutlets" : 1,
													"outlettype" : [ "" ],
													"patching_rect" : [ 765.0, 101.0, 33.0, 22.0 ],
													"text" : "front"
												}

											}
, 											{
												"box" : 												{
													"id" : "obj-20",
													"maxclass" : "newobj",
													"numinlets" : 3,
													"numoutlets" : 3,
													"outlettype" : [ "", "", "" ],
													"patching_rect" : [ 765.0, 71.0, 97.0, 22.0 ],
													"text" : "route open basis"
												}

											}
, 											{
												"box" : 												{
													"id" : "obj-5",
													"maxclass" : "newobj",
													"numinlets" : 0,
													"numoutlets" : 1,
													"outlettype" : [ "" ],
													"patching_rect" : [ 765.0, 40.0, 103.0, 22.0 ],
													"text" : "r fluctuation-noise"
												}

											}
, 											{
												"box" : 												{
													"id" : "obj-3",
													"maxclass" : "message",
													"numinlets" : 2,
													"numoutlets" : 1,
													"outlettype" : [ "" ],
													"patching_rect" : [ 421.5, 344.0, 53.0, 22.0 ],
													"text" : "basis $1"
												}

											}
, 											{
												"box" : 												{
													"id" : "obj-1",
													"maxclass" : "newobj",
													"numinlets" : 1,
													"numoutlets" : 1,
													"outlettype" : [ "bang" ],
													"patching_rect" : [ 622.0, 100.0, 58.0, 22.0 ],
													"text" : "loadbang"
												}

											}
, 											{
												"box" : 												{
													"id" : "obj-46",
													"maxclass" : "message",
													"numinlets" : 2,
													"numoutlets" : 1,
													"outlettype" : [ "" ],
													"patching_rect" : [ 601.0, 131.0, 113.0, 22.0 ],
													"text" : "6., -6. 5000 6. 5000"
												}

											}
, 											{
												"box" : 												{
													"id" : "obj-44",
													"maxclass" : "newobj",
													"numinlets" : 3,
													"numoutlets" : 2,
													"outlettype" : [ "", "bang" ],
													"patching_rect" : [ 601.0, 167.213683247566223, 41.0, 22.0 ],
													"text" : "line 0."
												}

											}
, 											{
												"box" : 												{
													"id" : "obj-43",
													"maxclass" : "button",
													"numinlets" : 1,
													"numoutlets" : 1,
													"outlettype" : [ "bang" ],
													"parameter_enable" : 0,
													"patching_rect" : [ 60.0, 124.0, 24.0, 24.0 ]
												}

											}
, 											{
												"box" : 												{
													"fontname" : "Arial",
													"fontsize" : 13.0,
													"id" : "obj-30",
													"maxclass" : "message",
													"numinlets" : 2,
													"numoutlets" : 1,
													"outlettype" : [ "" ],
													"patching_rect" : [ 537.0, 275.0, 105.0, 23.0 ],
													"text" : "weight $1 $1 $1"
												}

											}
, 											{
												"box" : 												{
													"fontname" : "Arial",
													"fontsize" : 13.0,
													"format" : 6,
													"id" : "obj-31",
													"maxclass" : "flonum",
													"numinlets" : 1,
													"numoutlets" : 2,
													"outlettype" : [ "", "bang" ],
													"parameter_enable" : 0,
													"patching_rect" : [ 537.0, 244.0, 50.0, 23.0 ]
												}

											}
, 											{
												"box" : 												{
													"fontname" : "Arial",
													"fontsize" : 13.0,
													"format" : 6,
													"id" : "obj-25",
													"maxclass" : "flonum",
													"numinlets" : 1,
													"numoutlets" : 2,
													"outlettype" : [ "", "bang" ],
													"parameter_enable" : 0,
													"patching_rect" : [ 257.0, 100.0, 50.0, 23.0 ]
												}

											}
, 											{
												"box" : 												{
													"fontname" : "Arial",
													"fontsize" : 13.0,
													"format" : 6,
													"id" : "obj-32",
													"maxclass" : "flonum",
													"numinlets" : 1,
													"numoutlets" : 2,
													"outlettype" : [ "", "bang" ],
													"parameter_enable" : 0,
													"patching_rect" : [ 206.0, 100.0, 50.0, 23.0 ]
												}

											}
, 											{
												"box" : 												{
													"fontname" : "Arial",
													"fontsize" : 13.0,
													"format" : 6,
													"id" : "obj-27",
													"maxclass" : "flonum",
													"numinlets" : 1,
													"numoutlets" : 2,
													"outlettype" : [ "", "bang" ],
													"parameter_enable" : 0,
													"patching_rect" : [ 154.0, 100.0, 50.0, 23.0 ]
												}

											}
, 											{
												"box" : 												{
													"fontname" : "Arial",
													"fontsize" : 13.0,
													"id" : "obj-28",
													"maxclass" : "newobj",
													"numinlets" : 4,
													"numoutlets" : 1,
													"outlettype" : [ "" ],
													"patching_rect" : [ 143.0, 137.0, 113.0, 23.0 ],
													"text" : "pak origin 0. 0. 0."
												}

											}
, 											{
												"box" : 												{
													"fontname" : "Arial",
													"fontsize" : 13.0,
													"id" : "obj-24",
													"maxclass" : "message",
													"numinlets" : 2,
													"numoutlets" : 1,
													"outlettype" : [ "" ],
													"patching_rect" : [ 537.0, 213.0, 98.0, 23.0 ],
													"text" : "scale $1 $1 $1"
												}

											}
, 											{
												"box" : 												{
													"fontname" : "Arial",
													"fontsize" : 13.0,
													"format" : 6,
													"id" : "obj-33",
													"maxclass" : "flonum",
													"numinlets" : 1,
													"numoutlets" : 2,
													"outlettype" : [ "", "bang" ],
													"parameter_enable" : 0,
													"patching_rect" : [ 421.5, 100.0, 50.0, 23.0 ]
												}

											}
, 											{
												"box" : 												{
													"fontname" : "Arial",
													"fontsize" : 13.0,
													"format" : 6,
													"id" : "obj-34",
													"maxclass" : "flonum",
													"numinlets" : 1,
													"numoutlets" : 2,
													"outlettype" : [ "", "bang" ],
													"parameter_enable" : 0,
													"patching_rect" : [ 369.5, 100.0, 50.0, 23.0 ]
												}

											}
, 											{
												"box" : 												{
													"fontname" : "Arial",
													"fontsize" : 13.0,
													"format" : 6,
													"id" : "obj-21",
													"maxclass" : "flonum",
													"numinlets" : 1,
													"numoutlets" : 2,
													"outlettype" : [ "", "bang" ],
													"parameter_enable" : 0,
													"patching_rect" : [ 317.5, 100.0, 50.0, 23.0 ]
												}

											}
, 											{
												"box" : 												{
													"fontname" : "Arial",
													"fontsize" : 13.0,
													"id" : "obj-22",
													"maxclass" : "newobj",
													"numinlets" : 4,
													"numoutlets" : 1,
													"outlettype" : [ "" ],
													"patching_rect" : [ 307.5, 137.0, 113.0, 23.0 ],
													"text" : "pak offset 0. 0. 0."
												}

											}
, 											{
												"box" : 												{
													"fontname" : "Arial",
													"fontsize" : 13.0,
													"format" : 6,
													"id" : "obj-37",
													"maxclass" : "flonum",
													"numinlets" : 1,
													"numoutlets" : 2,
													"outlettype" : [ "", "bang" ],
													"parameter_enable" : 0,
													"patching_rect" : [ 537.0, 182.0, 50.0, 23.0 ]
												}

											}
, 											{
												"box" : 												{
													"fontname" : "Arial",
													"fontsize" : 13.0,
													"id" : "obj-39",
													"maxclass" : "newobj",
													"numinlets" : 1,
													"numoutlets" : 2,
													"outlettype" : [ "jit_matrix", "" ],
													"patching_rect" : [ 50.0, 182.5, 111.0, 23.0 ],
													"text" : "jit.bfg 3 float32 20"
												}

											}
, 											{
												"box" : 												{
													"attr" : "basis",
													"fontface" : 0,
													"fontname" : "Arial",
													"fontsize" : 13.0,
													"id" : "obj-40",
													"lock" : 1,
													"maxclass" : "attrui",
													"numinlets" : 1,
													"numoutlets" : 1,
													"outlettype" : [ "" ],
													"parameter_enable" : 0,
													"patching_rect" : [ 241.5, 201.0, 245.0, 23.0 ],
													"text_width" : 47.140022000000002
												}

											}
, 											{
												"box" : 												{
													"attr" : "precision",
													"fontface" : 0,
													"fontname" : "Arial",
													"fontsize" : 13.0,
													"id" : "obj-29",
													"lock" : 1,
													"maxclass" : "attrui",
													"numinlets" : 1,
													"numoutlets" : 1,
													"outlettype" : [ "" ],
													"parameter_enable" : 0,
													"patching_rect" : [ 476.5, 100.0, 132.0, 23.0 ],
													"text_width" : 71.630020000000002
												}

											}
, 											{
												"box" : 												{
													"comment" : "",
													"id" : "obj-51",
													"index" : 1,
													"maxclass" : "inlet",
													"numinlets" : 0,
													"numoutlets" : 1,
													"outlettype" : [ "" ],
													"patching_rect" : [ 50.0, 40.0, 30.0, 30.0 ]
												}

											}
, 											{
												"box" : 												{
													"comment" : "",
													"id" : "obj-52",
													"index" : 1,
													"maxclass" : "outlet",
													"numinlets" : 1,
													"numoutlets" : 0,
													"patching_rect" : [ 50.0, 365.5, 30.0, 30.0 ]
												}

											}
 ],
										"lines" : [ 											{
												"patchline" : 												{
													"destination" : [ "obj-46", 0 ],
													"source" : [ "obj-1", 0 ]
												}

											}
, 											{
												"patchline" : 												{
													"destination" : [ "obj-18", 0 ],
													"source" : [ "obj-19", 0 ]
												}

											}
, 											{
												"patchline" : 												{
													"destination" : [ "obj-19", 0 ],
													"source" : [ "obj-20", 0 ]
												}

											}
, 											{
												"patchline" : 												{
													"destination" : [ "obj-3", 0 ],
													"source" : [ "obj-20", 1 ]
												}

											}
, 											{
												"patchline" : 												{
													"destination" : [ "obj-22", 1 ],
													"source" : [ "obj-21", 0 ]
												}

											}
, 											{
												"patchline" : 												{
													"destination" : [ "obj-39", 0 ],
													"midpoints" : [ 317.0, 163.25, 59.5, 163.25 ],
													"source" : [ "obj-22", 0 ]
												}

											}
, 											{
												"patchline" : 												{
													"destination" : [ "obj-39", 0 ],
													"midpoints" : [ 546.5, 241.0, 513.0, 241.0, 513.0, 163.5, 59.5, 163.5 ],
													"source" : [ "obj-24", 0 ]
												}

											}
, 											{
												"patchline" : 												{
													"destination" : [ "obj-28", 3 ],
													"source" : [ "obj-25", 0 ]
												}

											}
, 											{
												"patchline" : 												{
													"destination" : [ "obj-28", 1 ],
													"source" : [ "obj-27", 0 ]
												}

											}
, 											{
												"patchline" : 												{
													"destination" : [ "obj-39", 0 ],
													"midpoints" : [ 152.5, 163.25, 59.5, 163.25 ],
													"source" : [ "obj-28", 0 ]
												}

											}
, 											{
												"patchline" : 												{
													"destination" : [ "obj-39", 0 ],
													"midpoints" : [ 486.0, 162.75, 59.5, 162.75 ],
													"source" : [ "obj-29", 0 ]
												}

											}
, 											{
												"patchline" : 												{
													"destination" : [ "obj-39", 0 ],
													"source" : [ "obj-3", 0 ]
												}

											}
, 											{
												"patchline" : 												{
													"destination" : [ "obj-39", 0 ],
													"midpoints" : [ 546.5, 303.0, 513.0, 303.0, 513.0, 163.5, 59.5, 163.5 ],
													"source" : [ "obj-30", 0 ]
												}

											}
, 											{
												"patchline" : 												{
													"destination" : [ "obj-30", 0 ],
													"source" : [ "obj-31", 0 ]
												}

											}
, 											{
												"patchline" : 												{
													"destination" : [ "obj-28", 2 ],
													"source" : [ "obj-32", 0 ]
												}

											}
, 											{
												"patchline" : 												{
													"destination" : [ "obj-22", 3 ],
													"source" : [ "obj-33", 0 ]
												}

											}
, 											{
												"patchline" : 												{
													"destination" : [ "obj-22", 2 ],
													"source" : [ "obj-34", 0 ]
												}

											}
, 											{
												"patchline" : 												{
													"destination" : [ "obj-24", 0 ],
													"order" : 0,
													"source" : [ "obj-37", 0 ]
												}

											}
, 											{
												"patchline" : 												{
													"destination" : [ "obj-43", 0 ],
													"order" : 1,
													"source" : [ "obj-37", 0 ]
												}

											}
, 											{
												"patchline" : 												{
													"destination" : [ "obj-52", 0 ],
													"source" : [ "obj-39", 0 ]
												}

											}
, 											{
												"patchline" : 												{
													"destination" : [ "obj-39", 0 ],
													"midpoints" : [ 251.0, 217.0, 221.25, 217.0, 221.25, 163.5, 59.5, 163.5 ],
													"source" : [ "obj-40", 0 ]
												}

											}
, 											{
												"patchline" : 												{
													"destination" : [ "obj-39", 0 ],
													"source" : [ "obj-43", 0 ]
												}

											}
, 											{
												"patchline" : 												{
													"destination" : [ "obj-31", 0 ],
													"order" : 0,
													"source" : [ "obj-44", 0 ]
												}

											}
, 											{
												"patchline" : 												{
													"destination" : [ "obj-37", 0 ],
													"order" : 1,
													"source" : [ "obj-44", 0 ]
												}

											}
, 											{
												"patchline" : 												{
													"destination" : [ "obj-46", 0 ],
													"source" : [ "obj-44", 1 ]
												}

											}
, 											{
												"patchline" : 												{
													"destination" : [ "obj-44", 0 ],
													"source" : [ "obj-46", 0 ]
												}

											}
, 											{
												"patchline" : 												{
													"destination" : [ "obj-20", 0 ],
													"source" : [ "obj-5", 0 ]
												}

											}
, 											{
												"patchline" : 												{
													"destination" : [ "obj-39", 0 ],
													"source" : [ "obj-51", 0 ]
												}

											}
 ]
									}
,
									"patching_rect" : [ 424.5, 235.0, 106.0, 22.0 ],
									"saved_object_attributes" : 									{
										"description" : "",
										"digest" : "",
										"globalpatchername" : "",
										"tags" : ""
									}
,
									"text" : "p fluctuation-noise"
								}

							}
, 							{
								"box" : 								{
									"id" : "obj-26",
									"maxclass" : "newobj",
									"numinlets" : 0,
									"numoutlets" : 1,
									"outlettype" : [ "" ],
									"patching_rect" : [ 426.0, 205.0, 47.0, 22.0 ],
									"text" : "r metro"
								}

							}
, 							{
								"box" : 								{
									"id" : "obj-7",
									"maxclass" : "newobj",
									"numinlets" : 1,
									"numoutlets" : 2,
									"outlettype" : [ "bang", "int" ],
									"patching_rect" : [ 453.0, 51.0, 29.5, 22.0 ],
									"text" : "t b i"
								}

							}
, 							{
								"box" : 								{
									"id" : "obj-13",
									"maxclass" : "button",
									"numinlets" : 1,
									"numoutlets" : 1,
									"outlettype" : [ "bang" ],
									"parameter_enable" : 0,
									"patching_rect" : [ 380.0, 45.0, 24.0, 24.0 ]
								}

							}
, 							{
								"box" : 								{
									"id" : "obj-6",
									"maxclass" : "newobj",
									"numinlets" : 1,
									"numoutlets" : 2,
									"outlettype" : [ "jit_matrix", "" ],
									"patching_rect" : [ 336.956512331962585, 214.0, 53.0, 22.0 ],
									"text" : "jit.matrix"
								}

							}
, 							{
								"box" : 								{
									"id" : "obj-20",
									"maxclass" : "newobj",
									"numinlets" : 1,
									"numoutlets" : 2,
									"outlettype" : [ "bang", "" ],
									"patching_rect" : [ 501.0, 151.0, 29.5, 22.0 ],
									"text" : "t b l"
								}

							}
, 							{
								"box" : 								{
									"comment" : "",
									"id" : "obj-19",
									"index" : 4,
									"maxclass" : "inlet",
									"numinlets" : 0,
									"numoutlets" : 1,
									"outlettype" : [ "" ],
									"patching_rect" : [ 501.0, 76.47826075553894, 30.0, 30.0 ]
								}

							}
, 							{
								"box" : 								{
									"id" : "obj-18",
									"maxclass" : "message",
									"numinlets" : 2,
									"numoutlets" : 1,
									"outlettype" : [ "" ],
									"patching_rect" : [ 501.0, 120.0, 114.0, 22.0 ],
									"text" : "minMaxScale $1 $2"
								}

							}
, 							{
								"box" : 								{
									"id" : "obj-16",
									"maxclass" : "newobj",
									"numinlets" : 1,
									"numoutlets" : 2,
									"outlettype" : [ "jit_matrix", "" ],
									"patching_rect" : [ 50.0, 214.0, 53.0, 22.0 ],
									"text" : "jit.matrix"
								}

							}
, 							{
								"box" : 								{
									"id" : "obj-15",
									"maxclass" : "newobj",
									"numinlets" : 1,
									"numoutlets" : 2,
									"outlettype" : [ "bang", "float" ],
									"patching_rect" : [ 140.249999966205564, 60.0, 29.5, 22.0 ],
									"text" : "t b f"
								}

							}
, 							{
								"box" : 								{
									"id" : "obj-14",
									"maxclass" : "message",
									"numinlets" : 2,
									"numoutlets" : 1,
									"outlettype" : [ "" ],
									"patching_rect" : [ 649.0, 306.0, 101.0, 22.0 ],
									"text" : "color $1 $1 $1 $1"
								}

							}
, 							{
								"box" : 								{
									"comment" : "",
									"id" : "obj-12",
									"index" : 6,
									"maxclass" : "inlet",
									"numinlets" : 0,
									"numoutlets" : 1,
									"outlettype" : [ "" ],
									"patching_rect" : [ 649.0, 266.862153283718101, 30.0, 30.0 ]
								}

							}
, 							{
								"box" : 								{
									"id" : "obj-11",
									"maxclass" : "newobj",
									"numinlets" : 1,
									"numoutlets" : 2,
									"outlettype" : [ "", "bang" ],
									"patching_rect" : [ 558.0, 389.0, 31.0, 22.0 ],
									"text" : "t s b"
								}

							}
, 							{
								"box" : 								{
									"id" : "obj-2",
									"maxclass" : "newobj",
									"numinlets" : 2,
									"numoutlets" : 2,
									"outlettype" : [ "", "" ],
									"patching_rect" : [ 513.478256165981293, 364.0, 66.0, 22.0 ],
									"text" : "route none"
								}

							}
, 							{
								"box" : 								{
									"id" : "obj-91",
									"maxclass" : "message",
									"numinlets" : 2,
									"numoutlets" : 1,
									"outlettype" : [ "" ],
									"patching_rect" : [ 150.749999966205564, 134.13043349981308, 58.0, 22.0 ],
									"text" : "radius $1"
								}

							}
, 							{
								"box" : 								{
									"id" : "obj-139",
									"maxclass" : "message",
									"numinlets" : 2,
									"numoutlets" : 1,
									"outlettype" : [ "" ],
									"patching_rect" : [ 553.478256165981293, 426.822380125522614, 55.0, 22.0 ],
									"text" : "blend $1"
								}

							}
, 							{
								"box" : 								{
									"comment" : "",
									"id" : "obj-1",
									"index" : 1,
									"maxclass" : "inlet",
									"numinlets" : 0,
									"numoutlets" : 1,
									"outlettype" : [ "bang" ],
									"patching_rect" : [ 50.0, 45.000001378891, 30.0, 30.0 ]
								}

							}
, 							{
								"box" : 								{
									"id" : "obj-41",
									"maxclass" : "newobj",
									"numinlets" : 0,
									"numoutlets" : 1,
									"outlettype" : [ "" ],
									"patching_rect" : [ 68.0, 352.0, 127.0, 22.0 ],
									"text" : "r #0.texturesNames"
								}

							}
, 							{
								"box" : 								{
									"id" : "obj-123",
									"maxclass" : "message",
									"numinlets" : 2,
									"numoutlets" : 1,
									"outlettype" : [ "" ],
									"patching_rect" : [ 296.499986886978149, 448.952816247940063, 216.0, 22.0 ],
									"text" : "blend_enable 0, depth_enable 1, blend"
								}

							}
, 							{
								"box" : 								{
									"id" : "obj-118",
									"maxclass" : "message",
									"numinlets" : 2,
									"numoutlets" : 1,
									"outlettype" : [ "" ],
									"patching_rect" : [ 325.499986886978149, 134.13043349981308, 45.0, 22.0 ],
									"text" : "dim $1"
								}

							}
, 							{
								"box" : 								{
									"id" : "obj-95",
									"maxclass" : "message",
									"numinlets" : 2,
									"numoutlets" : 1,
									"outlettype" : [ "" ],
									"patching_rect" : [ 570.0, 463.822380125522614, 180.0, 22.0 ],
									"text" : "blend_enable 1, depth_enable 0"
								}

							}
, 							{
								"box" : 								{
									"id" : "obj-88",
									"maxclass" : "newobj",
									"numinlets" : 1,
									"numoutlets" : 2,
									"outlettype" : [ "jit_matrix", "" ],
									"patching_rect" : [ 330.0, 355.039776504039764, 107.0, 22.0 ],
									"text" : "jit.matrix 1 char 20"
								}

							}
, 							{
								"box" : 								{
									"id" : "obj-86",
									"maxclass" : "button",
									"numinlets" : 1,
									"numoutlets" : 1,
									"outlettype" : [ "bang" ],
									"parameter_enable" : 0,
									"patching_rect" : [ 50.0, 100.0, 24.0, 24.0 ]
								}

							}
, 							{
								"box" : 								{
									"id" : "obj-84",
									"maxclass" : "newobj",
									"numinlets" : 1,
									"numoutlets" : 4,
									"outlettype" : [ "bang", "bang", "bang", "bang" ],
									"patching_rect" : [ 50.0, 134.13043349981308, 52.0, 22.0 ],
									"text" : "t b b b b"
								}

							}
, 							{
								"box" : 								{
									"id" : "obj-83",
									"maxclass" : "newobj",
									"numinlets" : 1,
									"numoutlets" : 2,
									"outlettype" : [ "jit_matrix", "" ],
									"patching_rect" : [ 193.478256165981293, 208.913039743900299, 115.0, 22.0 ],
									"text" : "jit.noise 3 float32 20"
								}

							}
, 							{
								"box" : 								{
									"id" : "obj-9",
									"maxclass" : "newobj",
									"numinlets" : 1,
									"numoutlets" : 2,
									"outlettype" : [ "jit_matrix", "" ],
									"patching_rect" : [ 50.0, 521.213683247566223, 408.0, 22.0 ],
									"text" : "jit.gl.videoplane game @color 1 1 1 0.3 @preserve_aspect 0 @automatic 0"
								}

							}
, 							{
								"box" : 								{
									"id" : "obj-8",
									"maxclass" : "newobj",
									"numinlets" : 4,
									"numoutlets" : 4,
									"outlettype" : [ "jit_matrix", "jit_matrix", "jit_matrix", "" ],
									"patcher" : 									{
										"fileversion" : 1,
										"appversion" : 										{
											"major" : 8,
											"minor" : 6,
											"revision" : 4,
											"architecture" : "x64",
											"modernui" : 1
										}
,
										"classnamespace" : "jit.gen",
										"rect" : [ 275.0, 296.0, 927.0, 608.0 ],
										"bglocked" : 0,
										"openinpresentation" : 0,
										"default_fontsize" : 12.0,
										"default_fontface" : 0,
										"default_fontname" : "Arial",
										"gridonopen" : 2,
										"gridsize" : [ 15.0, 15.0 ],
										"gridsnaponopen" : 1,
										"objectsnaponopen" : 1,
										"statusbarvisible" : 2,
										"toolbarvisible" : 1,
										"lefttoolbarpinned" : 0,
										"toptoolbarpinned" : 0,
										"righttoolbarpinned" : 0,
										"bottomtoolbarpinned" : 0,
										"toolbars_unpinned_last_save" : 0,
										"tallnewobj" : 0,
										"boxanimatetime" : 200,
										"enablehscroll" : 1,
										"enablevscroll" : 1,
										"devicewidth" : 0.0,
										"description" : "",
										"digest" : "",
										"tags" : "",
										"style" : "",
										"subpatcher_template" : "Template_Grid",
										"assistshowspatchername" : 0,
										"boxes" : [ 											{
												"box" : 												{
													"id" : "obj-24",
													"maxclass" : "newobj",
													"numinlets" : 2,
													"numoutlets" : 1,
													"outlettype" : [ "" ],
													"patching_rect" : [ 78.0, 334.0, 29.5, 22.0 ],
													"text" : "+"
												}

											}
, 											{
												"box" : 												{
													"id" : "obj-21",
													"maxclass" : "newobj",
													"numinlets" : 0,
													"numoutlets" : 1,
													"outlettype" : [ "" ],
													"patching_rect" : [ 138.0, 257.0, 28.0, 22.0 ],
													"text" : "in 4"
												}

											}
, 											{
												"box" : 												{
													"id" : "obj-11",
													"maxclass" : "newobj",
													"numinlets" : 1,
													"numoutlets" : 1,
													"outlettype" : [ "" ],
													"patching_rect" : [ 298.0, 144.0, 71.0, 22.0 ],
													"text" : "maximum 0"
												}

											}
, 											{
												"box" : 												{
													"id" : "obj-10",
													"maxclass" : "newobj",
													"numinlets" : 0,
													"numoutlets" : 1,
													"outlettype" : [ "" ],
													"patching_rect" : [ 510.0, 116.0, 158.0, 22.0 ],
													"text" : "param minMaxScale 0.1 0.3"
												}

											}
, 											{
												"box" : 												{
													"id" : "obj-20",
													"maxclass" : "newobj",
													"numinlets" : 3,
													"numoutlets" : 1,
													"outlettype" : [ "" ],
													"patching_rect" : [ 298.0, 277.0, 114.0, 22.0 ],
													"text" : "vec 0 0 1"
												}

											}
, 											{
												"box" : 												{
													"id" : "obj-19",
													"maxclass" : "newobj",
													"numinlets" : 2,
													"numoutlets" : 1,
													"outlettype" : [ "" ],
													"patching_rect" : [ 298.0, 211.0, 119.0, 22.0 ],
													"text" : "*"
												}

											}
, 											{
												"box" : 												{
													"id" : "obj-17",
													"maxclass" : "newobj",
													"numinlets" : 1,
													"numoutlets" : 1,
													"outlettype" : [ "" ],
													"patching_rect" : [ 298.0, 175.0, 100.0, 22.0 ],
													"text" : "+ minMaxScale.x"
												}

											}
, 											{
												"box" : 												{
													"id" : "obj-18",
													"maxclass" : "newobj",
													"numinlets" : 1,
													"numoutlets" : 1,
													"outlettype" : [ "" ],
													"patching_rect" : [ 298.0, 116.0, 191.0, 22.0 ],
													"text" : "* (minMaxScale.y-minMaxScale.x)"
												}

											}
, 											{
												"box" : 												{
													"id" : "obj-15",
													"maxclass" : "newobj",
													"numinlets" : 1,
													"numoutlets" : 1,
													"outlettype" : [ "" ],
													"patching_rect" : [ 398.0, 56.0, 41.0, 22.0 ],
													"text" : "swiz x"
												}

											}
, 											{
												"box" : 												{
													"id" : "obj-14",
													"maxclass" : "newobj",
													"numinlets" : 0,
													"numoutlets" : 1,
													"outlettype" : [ "" ],
													"patching_rect" : [ 398.0, 25.0, 28.0, 22.0 ],
													"text" : "in 3"
												}

											}
, 											{
												"box" : 												{
													"id" : "obj-9",
													"maxclass" : "newobj",
													"numinlets" : 1,
													"numoutlets" : 1,
													"outlettype" : [ "" ],
													"patching_rect" : [ 529.0, 277.0, 35.0, 22.0 ],
													"text" : "/ 255"
												}

											}
, 											{
												"box" : 												{
													"id" : "obj-13",
													"maxclass" : "newobj",
													"numinlets" : 0,
													"numoutlets" : 1,
													"outlettype" : [ "" ],
													"patching_rect" : [ 510.0, 85.0, 89.0, 22.0 ],
													"text" : "param radius 2"
												}

											}
, 											{
												"box" : 												{
													"id" : "obj-12",
													"maxclass" : "newobj",
													"numinlets" : 2,
													"numoutlets" : 1,
													"outlettype" : [ "" ],
													"patching_rect" : [ 78.0, 175.0, 81.0, 22.0 ],
													"text" : "scale 0 1 -1 1"
												}

											}
, 											{
												"box" : 												{
													"id" : "obj-8",
													"maxclass" : "newobj",
													"numinlets" : 0,
													"numoutlets" : 1,
													"outlettype" : [ "" ],
													"patching_rect" : [ 529.0, 242.0, 27.0, 22.0 ],
													"text" : "cell"
												}

											}
, 											{
												"box" : 												{
													"id" : "obj-7",
													"maxclass" : "newobj",
													"numinlets" : 1,
													"numoutlets" : 0,
													"patching_rect" : [ 529.0, 314.0, 35.0, 22.0 ],
													"text" : "out 3"
												}

											}
, 											{
												"box" : 												{
													"id" : "obj-6",
													"maxclass" : "newobj",
													"numinlets" : 1,
													"numoutlets" : 1,
													"outlettype" : [ "" ],
													"patching_rect" : [ 298.0, 85.0, 41.0, 22.0 ],
													"text" : "swiz x"
												}

											}
, 											{
												"box" : 												{
													"id" : "obj-5",
													"maxclass" : "newobj",
													"numinlets" : 1,
													"numoutlets" : 0,
													"patching_rect" : [ 298.0, 316.0, 35.0, 22.0 ],
													"text" : "out 2"
												}

											}
, 											{
												"box" : 												{
													"id" : "obj-1",
													"maxclass" : "newobj",
													"numinlets" : 0,
													"numoutlets" : 1,
													"outlettype" : [ "" ],
													"patching_rect" : [ 78.0, 135.0, 28.0, 22.0 ],
													"text" : "in 1"
												}

											}
, 											{
												"box" : 												{
													"id" : "obj-2",
													"maxclass" : "newobj",
													"numinlets" : 0,
													"numoutlets" : 1,
													"outlettype" : [ "" ],
													"patching_rect" : [ 298.0, 23.0, 28.0, 22.0 ],
													"text" : "in 2"
												}

											}
, 											{
												"box" : 												{
													"id" : "obj-3",
													"maxclass" : "newobj",
													"numinlets" : 1,
													"numoutlets" : 1,
													"outlettype" : [ "" ],
													"patching_rect" : [ 78.0, 230.0, 49.0, 22.0 ],
													"text" : "* radius"
												}

											}
, 											{
												"box" : 												{
													"id" : "obj-4",
													"maxclass" : "newobj",
													"numinlets" : 1,
													"numoutlets" : 0,
													"patching_rect" : [ 78.0, 370.0, 35.0, 22.0 ],
													"text" : "out 1"
												}

											}
 ],
										"lines" : [ 											{
												"patchline" : 												{
													"destination" : [ "obj-12", 0 ],
													"source" : [ "obj-1", 0 ]
												}

											}
, 											{
												"patchline" : 												{
													"destination" : [ "obj-17", 0 ],
													"source" : [ "obj-11", 0 ]
												}

											}
, 											{
												"patchline" : 												{
													"destination" : [ "obj-3", 0 ],
													"source" : [ "obj-12", 0 ]
												}

											}
, 											{
												"patchline" : 												{
													"destination" : [ "obj-15", 0 ],
													"source" : [ "obj-14", 0 ]
												}

											}
, 											{
												"patchline" : 												{
													"destination" : [ "obj-19", 0 ],
													"order" : 1,
													"source" : [ "obj-17", 0 ]
												}

											}
, 											{
												"patchline" : 												{
													"destination" : [ "obj-20", 1 ],
													"order" : 0,
													"source" : [ "obj-17", 0 ]
												}

											}
, 											{
												"patchline" : 												{
													"destination" : [ "obj-11", 0 ],
													"source" : [ "obj-18", 0 ]
												}

											}
, 											{
												"patchline" : 												{
													"destination" : [ "obj-20", 0 ],
													"source" : [ "obj-19", 0 ]
												}

											}
, 											{
												"patchline" : 												{
													"destination" : [ "obj-6", 0 ],
													"source" : [ "obj-2", 0 ]
												}

											}
, 											{
												"patchline" : 												{
													"destination" : [ "obj-5", 0 ],
													"source" : [ "obj-20", 0 ]
												}

											}
, 											{
												"patchline" : 												{
													"destination" : [ "obj-24", 0 ],
													"source" : [ "obj-21", 0 ]
												}

											}
, 											{
												"patchline" : 												{
													"destination" : [ "obj-4", 0 ],
													"source" : [ "obj-24", 0 ]
												}

											}
, 											{
												"patchline" : 												{
													"destination" : [ "obj-24", 1 ],
													"source" : [ "obj-3", 0 ]
												}

											}
, 											{
												"patchline" : 												{
													"destination" : [ "obj-18", 0 ],
													"source" : [ "obj-6", 0 ]
												}

											}
, 											{
												"patchline" : 												{
													"destination" : [ "obj-9", 0 ],
													"source" : [ "obj-8", 0 ]
												}

											}
, 											{
												"patchline" : 												{
													"destination" : [ "obj-7", 0 ],
													"source" : [ "obj-9", 0 ]
												}

											}
 ]
									}
,
									"patching_rect" : [ 50.0, 260.21738588809967, 305.956512331962585, 22.0 ],
									"text" : "jit.gen"
								}

							}
, 							{
								"box" : 								{
									"id" : "obj-5",
									"maxclass" : "newobj",
									"numinlets" : 3,
									"numoutlets" : 2,
									"outlettype" : [ "", "" ],
									"patching_rect" : [ 50.0, 395.039774537086487, 299.0, 22.0 ],
									"text" : "jit.gl.multiple game 3 @glparams position scale texture"
								}

							}
, 							{
								"box" : 								{
									"id" : "obj-4",
									"maxclass" : "newobj",
									"numinlets" : 1,
									"numoutlets" : 2,
									"outlettype" : [ "jit_matrix", "" ],
									"patching_rect" : [ 50.0, 187.913039743900299, 115.0, 22.0 ],
									"text" : "jit.noise 3 float32 20"
								}

							}
, 							{
								"box" : 								{
									"comment" : "",
									"id" : "obj-36",
									"index" : 2,
									"maxclass" : "inlet",
									"numinlets" : 0,
									"numoutlets" : 1,
									"outlettype" : [ "" ],
									"patching_rect" : [ 139.999999966205593, 11.000001378891, 30.0, 30.0 ]
								}

							}
, 							{
								"box" : 								{
									"comment" : "",
									"id" : "obj-38",
									"index" : 5,
									"maxclass" : "inlet",
									"numinlets" : 0,
									"numoutlets" : 1,
									"outlettype" : [ "" ],
									"patching_rect" : [ 513.478256165981293, 317.862153283718101, 30.0, 30.0 ]
								}

							}
, 							{
								"box" : 								{
									"attr" : "position",
									"id" : "obj-10",
									"maxclass" : "attrui",
									"numinlets" : 1,
									"numoutlets" : 1,
									"outlettype" : [ "" ],
									"parameter_enable" : 0,
									"patching_rect" : [ 50.0, 491.213683000000003, 203.0, 22.0 ]
								}

							}
, 							{
								"box" : 								{
									"attr" : "rotate",
									"id" : "obj-17",
									"maxclass" : "attrui",
									"numinlets" : 1,
									"numoutlets" : 1,
									"outlettype" : [ "" ],
									"parameter_enable" : 0,
									"patching_rect" : [ 256.0, 491.213683000000003, 253.0, 22.0 ]
								}

							}
 ],
						"lines" : [ 							{
								"patchline" : 								{
									"destination" : [ "obj-86", 0 ],
									"source" : [ "obj-1", 0 ]
								}

							}
, 							{
								"patchline" : 								{
									"destination" : [ "obj-9", 0 ],
									"source" : [ "obj-10", 0 ]
								}

							}
, 							{
								"patchline" : 								{
									"destination" : [ "obj-139", 0 ],
									"source" : [ "obj-11", 0 ]
								}

							}
, 							{
								"patchline" : 								{
									"destination" : [ "obj-95", 0 ],
									"source" : [ "obj-11", 1 ]
								}

							}
, 							{
								"patchline" : 								{
									"destination" : [ "obj-4", 0 ],
									"order" : 2,
									"source" : [ "obj-118", 0 ]
								}

							}
, 							{
								"patchline" : 								{
									"destination" : [ "obj-83", 0 ],
									"order" : 1,
									"source" : [ "obj-118", 0 ]
								}

							}
, 							{
								"patchline" : 								{
									"destination" : [ "obj-88", 0 ],
									"order" : 0,
									"source" : [ "obj-118", 0 ]
								}

							}
, 							{
								"patchline" : 								{
									"destination" : [ "obj-14", 0 ],
									"source" : [ "obj-12", 0 ]
								}

							}
, 							{
								"patchline" : 								{
									"destination" : [ "obj-9", 0 ],
									"source" : [ "obj-123", 0 ]
								}

							}
, 							{
								"patchline" : 								{
									"destination" : [ "obj-16", 0 ],
									"source" : [ "obj-13", 0 ]
								}

							}
, 							{
								"patchline" : 								{
									"destination" : [ "obj-9", 0 ],
									"source" : [ "obj-139", 0 ]
								}

							}
, 							{
								"patchline" : 								{
									"destination" : [ "obj-9", 0 ],
									"source" : [ "obj-14", 0 ]
								}

							}
, 							{
								"patchline" : 								{
									"destination" : [ "obj-16", 0 ],
									"source" : [ "obj-15", 0 ]
								}

							}
, 							{
								"patchline" : 								{
									"destination" : [ "obj-91", 0 ],
									"source" : [ "obj-15", 1 ]
								}

							}
, 							{
								"patchline" : 								{
									"destination" : [ "obj-8", 0 ],
									"source" : [ "obj-16", 0 ]
								}

							}
, 							{
								"patchline" : 								{
									"destination" : [ "obj-9", 0 ],
									"source" : [ "obj-17", 0 ]
								}

							}
, 							{
								"patchline" : 								{
									"destination" : [ "obj-20", 0 ],
									"source" : [ "obj-18", 0 ]
								}

							}
, 							{
								"patchline" : 								{
									"destination" : [ "obj-18", 0 ],
									"source" : [ "obj-19", 0 ]
								}

							}
, 							{
								"patchline" : 								{
									"destination" : [ "obj-11", 0 ],
									"source" : [ "obj-2", 1 ]
								}

							}
, 							{
								"patchline" : 								{
									"destination" : [ "obj-123", 0 ],
									"source" : [ "obj-2", 0 ]
								}

							}
, 							{
								"patchline" : 								{
									"destination" : [ "obj-16", 0 ],
									"source" : [ "obj-20", 0 ]
								}

							}
, 							{
								"patchline" : 								{
									"destination" : [ "obj-8", 0 ],
									"source" : [ "obj-20", 1 ]
								}

							}
, 							{
								"patchline" : 								{
									"destination" : [ "obj-118", 0 ],
									"source" : [ "obj-21", 0 ]
								}

							}
, 							{
								"patchline" : 								{
									"destination" : [ "obj-7", 0 ],
									"source" : [ "obj-22", 0 ]
								}

							}
, 							{
								"patchline" : 								{
									"destination" : [ "obj-9", 0 ],
									"source" : [ "obj-24", 0 ]
								}

							}
, 							{
								"patchline" : 								{
									"destination" : [ "obj-9", 0 ],
									"source" : [ "obj-25", 0 ]
								}

							}
, 							{
								"patchline" : 								{
									"destination" : [ "obj-16", 0 ],
									"order" : 1,
									"source" : [ "obj-26", 0 ]
								}

							}
, 							{
								"patchline" : 								{
									"destination" : [ "obj-53", 0 ],
									"order" : 0,
									"source" : [ "obj-26", 0 ]
								}

							}
, 							{
								"patchline" : 								{
									"destination" : [ "obj-24", 0 ],
									"source" : [ "obj-27", 0 ]
								}

							}
, 							{
								"patchline" : 								{
									"destination" : [ "obj-25", 0 ],
									"source" : [ "obj-28", 0 ]
								}

							}
, 							{
								"patchline" : 								{
									"destination" : [ "obj-34", 0 ],
									"source" : [ "obj-29", 0 ]
								}

							}
, 							{
								"patchline" : 								{
									"destination" : [ "obj-3", 0 ],
									"source" : [ "obj-31", 0 ]
								}

							}
, 							{
								"patchline" : 								{
									"destination" : [ "obj-9", 0 ],
									"source" : [ "obj-32", 0 ]
								}

							}
, 							{
								"patchline" : 								{
									"destination" : [ "obj-31", 0 ],
									"source" : [ "obj-34", 0 ]
								}

							}
, 							{
								"patchline" : 								{
									"destination" : [ "obj-15", 0 ],
									"source" : [ "obj-36", 0 ]
								}

							}
, 							{
								"patchline" : 								{
									"destination" : [ "obj-2", 0 ],
									"source" : [ "obj-38", 0 ]
								}

							}
, 							{
								"patchline" : 								{
									"destination" : [ "obj-16", 0 ],
									"source" : [ "obj-4", 0 ]
								}

							}
, 							{
								"patchline" : 								{
									"destination" : [ "obj-5", 0 ],
									"source" : [ "obj-41", 0 ]
								}

							}
, 							{
								"patchline" : 								{
									"destination" : [ "obj-9", 0 ],
									"source" : [ "obj-5", 0 ]
								}

							}
, 							{
								"patchline" : 								{
									"destination" : [ "obj-8", 3 ],
									"source" : [ "obj-53", 0 ]
								}

							}
, 							{
								"patchline" : 								{
									"destination" : [ "obj-8", 2 ],
									"source" : [ "obj-6", 0 ]
								}

							}
, 							{
								"patchline" : 								{
									"destination" : [ "obj-118", 0 ],
									"source" : [ "obj-7", 1 ]
								}

							}
, 							{
								"patchline" : 								{
									"destination" : [ "obj-86", 0 ],
									"source" : [ "obj-7", 0 ]
								}

							}
, 							{
								"patchline" : 								{
									"destination" : [ "obj-5", 1 ],
									"source" : [ "obj-8", 1 ]
								}

							}
, 							{
								"patchline" : 								{
									"destination" : [ "obj-5", 0 ],
									"source" : [ "obj-8", 0 ]
								}

							}
, 							{
								"patchline" : 								{
									"destination" : [ "obj-88", 0 ],
									"source" : [ "obj-8", 2 ]
								}

							}
, 							{
								"patchline" : 								{
									"destination" : [ "obj-8", 1 ],
									"source" : [ "obj-83", 0 ]
								}

							}
, 							{
								"patchline" : 								{
									"destination" : [ "obj-4", 0 ],
									"source" : [ "obj-84", 3 ]
								}

							}
, 							{
								"patchline" : 								{
									"destination" : [ "obj-4", 0 ],
									"source" : [ "obj-84", 0 ]
								}

							}
, 							{
								"patchline" : 								{
									"destination" : [ "obj-6", 0 ],
									"source" : [ "obj-84", 2 ]
								}

							}
, 							{
								"patchline" : 								{
									"destination" : [ "obj-83", 0 ],
									"source" : [ "obj-84", 1 ]
								}

							}
, 							{
								"patchline" : 								{
									"destination" : [ "obj-84", 0 ],
									"source" : [ "obj-86", 0 ]
								}

							}
, 							{
								"patchline" : 								{
									"destination" : [ "obj-5", 2 ],
									"source" : [ "obj-88", 0 ]
								}

							}
, 							{
								"patchline" : 								{
									"destination" : [ "obj-31", 0 ],
									"source" : [ "obj-9", 1 ]
								}

							}
, 							{
								"patchline" : 								{
									"destination" : [ "obj-8", 0 ],
									"source" : [ "obj-91", 0 ]
								}

							}
, 							{
								"patchline" : 								{
									"destination" : [ "obj-9", 0 ],
									"source" : [ "obj-95", 0 ]
								}

							}
 ]
					}
,
					"patching_rect" : [ 1011.653564576326517, 446.0, 340.666666666666742, 22.0 ],
					"saved_object_attributes" : 					{
						"description" : "",
						"digest" : "",
						"globalpatchername" : "",
						"tags" : ""
					}
,
					"text" : "p multiple"
				}

			}
, 			{
				"box" : 				{
					"id" : "obj-16",
					"maxclass" : "number",
					"numinlets" : 1,
					"numoutlets" : 2,
					"outlettype" : [ "", "bang" ],
					"parameter_enable" : 0,
					"patching_rect" : [ 755.936169147491455, 226.0, 50.0, 22.0 ],
					"presentation" : 1,
					"presentation_rect" : [ 711.472834148510856, 763.28504672897202, 50.0, 22.0 ]
				}

			}
, 			{
				"box" : 				{
					"id" : "obj-157",
					"maxclass" : "newobj",
					"numinlets" : 2,
					"numoutlets" : 2,
					"outlettype" : [ "", "" ],
					"patching_rect" : [ 101.936169147491455, 317.0, 58.0, 22.0 ],
					"text" : "zl.slice 1"
				}

			}
, 			{
				"box" : 				{
					"bubble" : 1,
					"bubbleusescolors" : 1,
					"id" : "obj-3",
					"maxclass" : "comment",
					"numinlets" : 1,
					"numoutlets" : 0,
					"patching_rect" : [ 608.936169147491455, 264.0, 137.0, 24.0 ],
					"presentation" : 1,
					"presentation_rect" : [ 772.472834148510856, 763.28504672897202, 137.0, 24.0 ],
					"text" : "play movie at index"
				}

			}
, 			{
				"box" : 				{
					"bubble" : 1,
					"bubbleusescolors" : 1,
					"id" : "obj-23",
					"maxclass" : "comment",
					"numinlets" : 1,
					"numoutlets" : 0,
					"patching_rect" : [ 249.436169147491455, 273.0, 111.0, 24.0 ],
					"text" : "texture version"
				}

			}
, 			{
				"box" : 				{
					"hidden" : 1,
					"id" : "obj-12",
					"maxclass" : "newobj",
					"numinlets" : 1,
					"numoutlets" : 1,
					"outlettype" : [ "clear" ],
					"patching_rect" : [ 706.436169147491455, 193.5, 44.0, 22.0 ],
					"text" : "t clear"
				}

			}
, 			{
				"box" : 				{
					"hidden" : 1,
					"id" : "obj-7",
					"maxclass" : "newobj",
					"numinlets" : 1,
					"numoutlets" : 1,
					"outlettype" : [ "bang" ],
					"patching_rect" : [ 706.436169147491455, 168.5, 65.0, 22.0 ],
					"text" : "savebang"
				}

			}
, 			{
				"box" : 				{
					"id" : "obj-1",
					"maxclass" : "newobj",
					"numinlets" : 1,
					"numoutlets" : 1,
					"outlettype" : [ "" ],
					"patching_rect" : [ 522.936169147491455, 264.0, 84.0, 22.0 ],
					"text" : "prepend play"
				}

			}
, 			{
				"box" : 				{
					"id" : "obj-21",
					"maxclass" : "newobj",
					"numinlets" : 2,
					"numoutlets" : 2,
					"outlettype" : [ "", "" ],
					"patching_rect" : [ 522.936169147491455, 160.0, 92.0, 22.0 ],
					"text" : "route movielist"
				}

			}
, 			{
				"box" : 				{
					"id" : "obj-20",
					"items" : "<empty>",
					"maxclass" : "umenu",
					"numinlets" : 1,
					"numoutlets" : 3,
					"outlettype" : [ "int", "", "" ],
					"parameter_enable" : 0,
					"patching_rect" : [ 522.936169147491455, 226.0, 152.0, 22.0 ],
					"presentation" : 1,
					"presentation_rect" : [ 552.472834148510856, 763.28504672897202, 152.0, 22.0 ]
				}

			}
, 			{
				"box" : 				{
					"id" : "obj-9",
					"maxclass" : "newobj",
					"numinlets" : 1,
					"numoutlets" : 3,
					"outlettype" : [ "jit_gl_texture", "", "" ],
					"patching_rect" : [ 101.936169147491455, 273.0, 138.0, 22.0 ],
					"text" : "jit.gl.polymovie @vol 1",
					"varname" : "jit.gl.polymovie"
				}

			}
 ],
		"lines" : [ 			{
				"patchline" : 				{
					"destination" : [ "obj-9", 0 ],
					"source" : [ "obj-1", 0 ]
				}

			}
, 			{
				"patchline" : 				{
					"destination" : [ "obj-22", 0 ],
					"source" : [ "obj-10", 1 ]
				}

			}
, 			{
				"patchline" : 				{
					"destination" : [ "obj-60", 0 ],
					"source" : [ "obj-10", 0 ]
				}

			}
, 			{
				"patchline" : 				{
					"destination" : [ "obj-9", 0 ],
					"source" : [ "obj-10", 2 ]
				}

			}
, 			{
				"patchline" : 				{
					"destination" : [ "obj-10", 0 ],
					"source" : [ "obj-11", 0 ]
				}

			}
, 			{
				"patchline" : 				{
					"destination" : [ "obj-123", 0 ],
					"source" : [ "obj-118", 0 ]
				}

			}
, 			{
				"patchline" : 				{
					"destination" : [ "obj-20", 0 ],
					"hidden" : 1,
					"source" : [ "obj-12", 0 ]
				}

			}
, 			{
				"patchline" : 				{
					"destination" : [ "obj-127", 0 ],
					"order" : 1,
					"source" : [ "obj-120", 0 ]
				}

			}
, 			{
				"patchline" : 				{
					"destination" : [ "obj-52", 0 ],
					"order" : 0,
					"source" : [ "obj-120", 0 ]
				}

			}
, 			{
				"patchline" : 				{
					"destination" : [ "obj-120", 0 ],
					"source" : [ "obj-122", 1 ]
				}

			}
, 			{
				"patchline" : 				{
					"destination" : [ "obj-52", 0 ],
					"source" : [ "obj-122", 0 ]
				}

			}
, 			{
				"patchline" : 				{
					"destination" : [ "obj-122", 0 ],
					"source" : [ "obj-123", 0 ]
				}

			}
, 			{
				"patchline" : 				{
					"destination" : [ "obj-148", 0 ],
					"source" : [ "obj-127", 0 ]
				}

			}
, 			{
				"patchline" : 				{
					"destination" : [ "obj-195", 0 ],
					"source" : [ "obj-13", 0 ]
				}

			}
, 			{
				"patchline" : 				{
					"destination" : [ "obj-122", 0 ],
					"source" : [ "obj-148", 0 ]
				}

			}
, 			{
				"patchline" : 				{
					"destination" : [ "obj-58", 0 ],
					"source" : [ "obj-15", 0 ]
				}

			}
, 			{
				"patchline" : 				{
					"destination" : [ "obj-153", 0 ],
					"order" : 0,
					"source" : [ "obj-155", 0 ]
				}

			}
, 			{
				"patchline" : 				{
					"destination" : [ "obj-180", 0 ],
					"order" : 1,
					"source" : [ "obj-155", 0 ]
				}

			}
, 			{
				"patchline" : 				{
					"destination" : [ "obj-61", 0 ],
					"source" : [ "obj-157", 1 ]
				}

			}
, 			{
				"patchline" : 				{
					"destination" : [ "obj-1", 0 ],
					"source" : [ "obj-16", 0 ]
				}

			}
, 			{
				"patchline" : 				{
					"destination" : [ "obj-20", 0 ],
					"source" : [ "obj-163", 0 ]
				}

			}
, 			{
				"patchline" : 				{
					"destination" : [ "obj-180", 1 ],
					"source" : [ "obj-168", 0 ]
				}

			}
, 			{
				"patchline" : 				{
					"destination" : [ "obj-60", 0 ],
					"source" : [ "obj-17", 0 ]
				}

			}
, 			{
				"patchline" : 				{
					"destination" : [ "obj-17", 0 ],
					"source" : [ "obj-18", 0 ]
				}

			}
, 			{
				"patchline" : 				{
					"destination" : [ "obj-118", 0 ],
					"order" : 1,
					"source" : [ "obj-180", 0 ]
				}

			}
, 			{
				"patchline" : 				{
					"destination" : [ "obj-28", 9 ],
					"order" : 0,
					"source" : [ "obj-180", 0 ]
				}

			}
, 			{
				"patchline" : 				{
					"destination" : [ "obj-9", 0 ],
					"source" : [ "obj-180", 1 ]
				}

			}
, 			{
				"patchline" : 				{
					"destination" : [ "obj-9", 0 ],
					"source" : [ "obj-193", 0 ]
				}

			}
, 			{
				"patchline" : 				{
					"destination" : [ "obj-69", 0 ],
					"source" : [ "obj-195", 0 ]
				}

			}
, 			{
				"patchline" : 				{
					"destination" : [ "obj-13", 0 ],
					"order" : 1,
					"source" : [ "obj-2", 0 ]
				}

			}
, 			{
				"patchline" : 				{
					"destination" : [ "obj-14", 0 ],
					"order" : 0,
					"source" : [ "obj-2", 0 ]
				}

			}
, 			{
				"patchline" : 				{
					"destination" : [ "obj-1", 0 ],
					"source" : [ "obj-20", 0 ]
				}

			}
, 			{
				"patchline" : 				{
					"destination" : [ "obj-66", 0 ],
					"source" : [ "obj-20", 2 ]
				}

			}
, 			{
				"patchline" : 				{
					"destination" : [ "obj-208", 0 ],
					"source" : [ "obj-206", 0 ]
				}

			}
, 			{
				"patchline" : 				{
					"destination" : [ "obj-28", 9 ],
					"source" : [ "obj-206", 9 ]
				}

			}
, 			{
				"patchline" : 				{
					"destination" : [ "obj-28", 8 ],
					"source" : [ "obj-206", 8 ]
				}

			}
, 			{
				"patchline" : 				{
					"destination" : [ "obj-28", 7 ],
					"source" : [ "obj-206", 7 ]
				}

			}
, 			{
				"patchline" : 				{
					"destination" : [ "obj-28", 6 ],
					"source" : [ "obj-206", 6 ]
				}

			}
, 			{
				"patchline" : 				{
					"destination" : [ "obj-28", 5 ],
					"source" : [ "obj-206", 5 ]
				}

			}
, 			{
				"patchline" : 				{
					"destination" : [ "obj-28", 4 ],
					"source" : [ "obj-206", 4 ]
				}

			}
, 			{
				"patchline" : 				{
					"destination" : [ "obj-28", 3 ],
					"source" : [ "obj-206", 3 ]
				}

			}
, 			{
				"patchline" : 				{
					"destination" : [ "obj-28", 2 ],
					"source" : [ "obj-206", 2 ]
				}

			}
, 			{
				"patchline" : 				{
					"destination" : [ "obj-28", 1 ],
					"source" : [ "obj-206", 1 ]
				}

			}
, 			{
				"patchline" : 				{
					"destination" : [ "obj-28", 0 ],
					"source" : [ "obj-208", 0 ]
				}

			}
, 			{
				"patchline" : 				{
					"destination" : [ "obj-20", 0 ],
					"source" : [ "obj-21", 0 ]
				}

			}
, 			{
				"patchline" : 				{
					"destination" : [ "obj-155", 0 ],
					"source" : [ "obj-22", 1 ]
				}

			}
, 			{
				"patchline" : 				{
					"destination" : [ "obj-180", 2 ],
					"source" : [ "obj-22", 0 ]
				}

			}
, 			{
				"patchline" : 				{
					"destination" : [ "obj-206", 0 ],
					"source" : [ "obj-220", 0 ]
				}

			}
, 			{
				"patchline" : 				{
					"destination" : [ "obj-206", 0 ],
					"source" : [ "obj-25", 0 ]
				}

			}
, 			{
				"patchline" : 				{
					"destination" : [ "obj-2", 0 ],
					"source" : [ "obj-4", 0 ]
				}

			}
, 			{
				"patchline" : 				{
					"destination" : [ "obj-10", 0 ],
					"source" : [ "obj-5", 0 ]
				}

			}
, 			{
				"patchline" : 				{
					"destination" : [ "obj-24", 0 ],
					"source" : [ "obj-5", 1 ]
				}

			}
, 			{
				"patchline" : 				{
					"destination" : [ "obj-17", 1 ],
					"source" : [ "obj-58", 0 ]
				}

			}
, 			{
				"patchline" : 				{
					"destination" : [ "obj-206", 0 ],
					"source" : [ "obj-6", 0 ]
				}

			}
, 			{
				"patchline" : 				{
					"destination" : [ "obj-8", 0 ],
					"source" : [ "obj-6", 1 ]
				}

			}
, 			{
				"patchline" : 				{
					"destination" : [ "obj-9", 0 ],
					"source" : [ "obj-60", 0 ]
				}

			}
, 			{
				"patchline" : 				{
					"destination" : [ "obj-122", 1 ],
					"source" : [ "obj-61", 0 ]
				}

			}
, 			{
				"patchline" : 				{
					"destination" : [ "obj-168", 0 ],
					"order" : 2,
					"source" : [ "obj-66", 0 ]
				}

			}
, 			{
				"patchline" : 				{
					"destination" : [ "obj-195", 0 ],
					"order" : 1,
					"source" : [ "obj-66", 0 ]
				}

			}
, 			{
				"patchline" : 				{
					"destination" : [ "obj-58", 1 ],
					"order" : 0,
					"source" : [ "obj-66", 0 ]
				}

			}
, 			{
				"patchline" : 				{
					"destination" : [ "obj-12", 0 ],
					"hidden" : 1,
					"source" : [ "obj-7", 0 ]
				}

			}
, 			{
				"patchline" : 				{
					"destination" : [ "obj-118", 0 ],
					"order" : 1,
					"source" : [ "obj-83", 0 ]
				}

			}
, 			{
				"patchline" : 				{
					"destination" : [ "obj-77", 0 ],
					"order" : 0,
					"source" : [ "obj-83", 0 ]
				}

			}
, 			{
				"patchline" : 				{
					"destination" : [ "obj-15", 0 ],
					"order" : 1,
					"source" : [ "obj-9", 2 ]
				}

			}
, 			{
				"patchline" : 				{
					"destination" : [ "obj-157", 0 ],
					"source" : [ "obj-9", 0 ]
				}

			}
, 			{
				"patchline" : 				{
					"destination" : [ "obj-21", 0 ],
					"order" : 0,
					"source" : [ "obj-9", 2 ]
				}

			}
 ]
	}

}
